<mxfile host="app.diagrams.net" modified="2024-06-02T06:39:22.387Z" agent="Mozilla/5.0 (Windows NT 10.0; Win64; x64) AppleWebKit/537.36 (KHTML, like Gecko) Chrome/125.0.0.0 Safari/537.36" version="24.4.13" etag="jTZR0cKAVjDN7w1yTtYZ" type="github">
  <diagram name="페이지-1" id="N6ANpBjc8KNxsfwd1asz">
    <mxGraphModel>
      <root>
        <mxCell id="0" />
        <mxCell id="1" parent="0" />
      </root>
    </mxGraphModel>
  </diagram>
</mxfile>
